<svg id="Layer_1" enable-background="new 0 0 512 512" height="512" viewBox="0 0 512 512" width="512" xmlns="http://www.w3.org/2000/svg"><g><g><path d="m120 456h256c13.255 0 24-10.745 24-24v-320c-34.366-34.366-53.634-53.634-88-88h-192c-13.255 0-24 10.745-24 24v384c0 13.255 10.745 24 24 24z" fill="#73cddc"/></g><g><path d="m400 112h-64c-13.255 0-24-10.745-24-24v-64z" fill="#5f78be"/></g><g><g><g><path d="m264 488h-200c-8.837 0-16-7.163-16-16v-192c0-8.837 7.163-16 16-16h200c8.837 0 16 7.163 16 16v192c0 8.837-7.163 16-16 16z" fill="#faa51e"/></g><g><path d="m224 488h-160c-8.837 0-16-7.163-16-16v-192c0-8.837 7.163-16 16-16h160c8.837 0 16 7.163 16 16v192c0 8.837-7.163 16-16 16z" fill="#ffcd06"/></g></g><g><path d="m72 328h144c4.418 0 8-3.582 8-8v-32c0-4.418-3.582-8-8-8h-144c-4.418 0-8 3.582-8 8v32c0 4.418 3.582 8 8 8z" fill="#46508c"/></g><g><path d="m72 472h144c4.418 0 8-3.582 8-8v-112c0-4.418-3.582-8-8-8h-144c-4.418 0-8 3.582-8 8v112c0 4.418 3.582 8 8 8z" fill="#46508c"/></g><g><path d="m72 472h128c4.418 0 8-3.582 8-8v-112c0-4.418-3.582-8-8-8h-128c-4.418 0-8 3.582-8 8v112c0 4.418 3.582 8 8 8z" fill="#5f78be"/></g><g><path d="m208 402.667h-66.667v-58.667h-10.666v58.667h-66.667v10.666h66.667v58.667h10.666v-58.667h66.667z" fill="#46508c"/></g><g><g><path d="m186.667 379.333h-24c-3.313 0-6-2.687-6-6s2.687-6 6-6h24c3.313 0 6 2.687 6 6s-2.687 6-6 6z" fill="#73cddc"/></g></g><g><g><path d="m109.333 438h-24c-3.313 0-6-2.687-6-6s2.687-6 6-6h24c3.313 0 6 2.687 6 6s-2.687 6-6 6z" fill="#73cddc"/></g></g><g><g><path d="m109.333 459.333h-24c-3.313 0-6-2.687-6-6s2.687-6 6-6h24c3.313 0 6 2.687 6 6s-2.687 6-6 6z" fill="#73cddc"/></g></g><g fill="#73cddc"><path d="m109.333 367.333h-6v-6c0-3.313-2.687-6-6-6s-6 2.687-6 6v6h-6c-3.313 0-6 2.687-6 6s2.687 6 6 6h6v6c0 3.313 2.687 6 6 6s6-2.687 6-6v-6h6c3.313 0 6-2.687 6-6s-2.687-6-6-6z"/><path d="m183.152 442.667 6.424-6.424c2.343-2.343 2.343-6.142-.001-8.485-2.342-2.343-6.142-2.343-8.485 0l-6.423 6.423-6.423-6.423c-2.343-2.343-6.143-2.343-8.485 0-2.344 2.343-2.344 6.142-.001 8.485l6.424 6.424-6.424 6.424c-2.343 2.343-2.343 6.142.001 8.485 1.171 1.171 2.707 1.757 4.242 1.757s3.071-.586 4.243-1.757l6.423-6.423 6.423 6.423c1.172 1.172 2.707 1.757 4.243 1.757 1.535 0 3.071-.586 4.242-1.757 2.344-2.343 2.344-6.142.001-8.485z"/></g></g><g><g><path d="m456 328h-112c-4.418 0-8-3.582-8-8v-16c0-4.418 3.582-8 8-8h112c4.418 0 8 3.582 8 8v16c0 4.418-3.582 8-8 8z" fill="#faa51e"/></g><g><path d="m456 296h-56v32h56c4.418 0 8-3.582 8-8v-16c0-4.418-3.582-8-8-8z" fill="#f06423"/></g></g><g><g><path d="m440 360h-112c-4.418 0-8-3.582-8-8v-16c0-4.418 3.582-8 8-8h112c4.418 0 8 3.582 8 8v16c0 4.418-3.582 8-8 8z" fill="#ffcd06"/></g><g><path d="m440 328h-56v32h56c4.418 0 8-3.582 8-8v-16c0-4.418-3.582-8-8-8z" fill="#faa51e"/></g></g><g><g><path d="m456 424h-112c-4.418 0-8-3.582-8-8v-16c0-4.418 3.582-8 8-8h112c4.418 0 8 3.582 8 8v16c0 4.418-3.582 8-8 8z" fill="#ffcd06"/></g><g><path d="m456 392h-56v32h56c4.418 0 8-3.582 8-8v-16c0-4.418-3.582-8-8-8z" fill="#faa51e"/></g></g><g><g><path d="m456 488h-112c-4.418 0-8-3.582-8-8v-16c0-4.418 3.582-8 8-8h112c4.418 0 8 3.582 8 8v16c0 4.418-3.582 8-8 8z" fill="#ffcd06"/></g><g><path d="m456 456h-56v32h56c4.418 0 8-3.582 8-8v-16c0-4.418-3.582-8-8-8z" fill="#faa51e"/></g></g><g><g><path d="m440 456h-112c-4.418 0-8-3.582-8-8v-16c0-4.418 3.582-8 8-8h112c4.418 0 8 3.582 8 8v16c0 4.418-3.582 8-8 8z" fill="#faa51e"/></g><g><path d="m440 424h-56v32h56c4.418 0 8-3.582 8-8v-16c0-4.418-3.582-8-8-8z" fill="#f06423"/></g></g><g><g><path d="m456 392h-112c-4.418 0-8-3.582-8-8v-16c0-4.418 3.582-8 8-8h112c4.418 0 8 3.582 8 8v16c0 4.418-3.582 8-8 8z" fill="#faa51e"/></g><g><path d="m456 360h-56v32h56c4.418 0 8-3.582 8-8v-16c0-4.418-3.582-8-8-8z" fill="#f06423"/></g></g><path d="m192 176c4.418 0 8-3.582 8-8v-5.404c0-13.789-10.549-25.158-24-26.468v-8.128c0-4.418-3.582-8-8-8s-8 3.582-8 8v8.128c-13.451 1.31-24 12.679-24 26.468 0 11.466 7.309 21.605 18.187 25.231l22.567 7.522c4.334 1.445 7.246 5.485 7.246 10.053 0 5.843-4.754 10.596-10.597 10.596h-10.807c-5.843 0-10.597-4.753-10.597-10.596v-5.402c0-4.418-3.582-8-8-8s-8 3.582-8 8v5.404c0 13.789 10.549 25.158 24 26.468v8.128c0 4.418 3.582 8 8 8s8-3.582 8-8v-8.128c13.451-1.31 24-12.679 24-26.468 0-11.466-7.309-21.605-18.187-25.231l-22.567-7.522c-4.334-1.445-7.246-5.485-7.246-10.053 0-5.843 4.754-10.596 10.597-10.596h10.807c5.843 0 10.597 4.753 10.597 10.596v5.402c0 4.418 3.582 8 8 8z" fill="#5f78be"/><g><path d="m336 136h-96c-8.837 0-16 7.163-16 16 0 8.837 7.163 16 16 16h96c8.837 0 16-7.163 16-16 0-8.837-7.163-16-16-16z" fill="#5f78be"/></g><g><path d="m336 200h-96c-8.837 0-16 7.163-16 16 0 8.837 7.163 16 16 16h96c8.837 0 16-7.163 16-16 0-8.837-7.163-16-16-16z" fill="#5f78be"/></g></g></svg>